<svg
  width="160"
  height="160"
  viewBox="0 0 160 160"
  fill="none"
  xmlns="http://www.w3.org/2000/svg"
  role="img"
  aria-labelledby="title desc"
>
  <title id="title">AIコールエージェント</title>
  <desc id="desc">電話応対を表す受話器と会話のアイコン</desc>
  <rect width="160" height="160" rx="18" fill="#FFF1EF" />
  <path
    d="M48 45c6-5 14-3 18 4l5 9c3 5 2 11-2 15l-5 5c7 13 17 23 30 30l5-5c4-4 10-5 15-2l9 5c7 4 9 12 4 18-6 8-16 12-26 9-34-9-62-37-71-71-3-10 1-20 9-26Z"
    fill="#FF3D38"
  />
  <path
    d="M96 46h20c5 0 9 4 9 9v18c0 5-4 9-9 9h-9l-14 12V82h-7c-5 0-9-4-9-9V55c0-5 4-9 9-9h10Z"
    stroke="#111"
    stroke-width="8"
    stroke-linejoin="round"
  />
  <path d="M93 62h18M93 72h12" stroke="#111" stroke-width="7" stroke-linecap="round" />
</svg>
