<svg width="1536" height="864" viewBox="0 0 1536 864" fill="none" xmlns="http://www.w3.org/2000/svg">
  <rect width="1536" height="864" fill="#FFF6F4"/>
  <path d="M0 520C260 440 452 524 646 430C846 332 1010 168 1536 92V864H0V520Z" fill="#FF433D"/>
  <path d="M0 626C262 520 450 604 672 496C904 382 1056 280 1536 234V864H0V626Z" fill="#FFB7B0"/>
  <path d="M0 0H1536V864H0V0Z" fill="url(#caseGradient)"/>
  <path d="M0 0H1536V180H0V0Z" fill="#111111"/>
  <circle cx="1276" cy="128" r="92" fill="#FFFFFF" fill-opacity="0.08"/>
  <circle cx="124" cy="90" r="8" fill="#FFFFFF"/>
  <circle cx="156" cy="90" r="8" fill="#FFFFFF" fill-opacity="0.52"/>
  <circle cx="188" cy="90" r="8" fill="#FFFFFF" fill-opacity="0.28"/>
  <text x="112" y="122" fill="#FFFFFF" font-family="'Noto Sans JP', 'Hiragino Sans', 'Yu Gothic', sans-serif" font-size="36" font-weight="800" letter-spacing="2">FIELD X WHITE PAPER</text>
  <text x="112" y="314" fill="#111111" font-family="'Noto Sans JP', 'Hiragino Sans', 'Yu Gothic', sans-serif" font-size="82" font-weight="900">AI活用</text>
  <text x="112" y="418" fill="#FF433D" font-family="'Noto Sans JP', 'Hiragino Sans', 'Yu Gothic', sans-serif" font-size="88" font-weight="900">最新事例集</text>
  <text x="112" y="500" fill="#111111" font-family="'Noto Sans JP', 'Hiragino Sans', 'Yu Gothic', sans-serif" font-size="36" font-weight="700">不動産賃貸管理会社向け</text>
  <rect x="112" y="594" width="414" height="76" rx="38" fill="#111111"/>
  <text x="164" y="644" fill="#FFFFFF" font-family="'Noto Sans JP', 'Hiragino Sans', 'Yu Gothic', sans-serif" font-size="28" font-weight="800">無料ダウンロード</text>
  <g opacity="0.92">
    <rect x="962" y="292" width="314" height="210" rx="24" fill="#FFFFFF" stroke="#111111" stroke-opacity="0.1" stroke-width="2"/>
    <rect x="1000" y="342" width="152" height="14" rx="7" fill="#111111" fill-opacity="0.18"/>
    <rect x="1000" y="388" width="226" height="14" rx="7" fill="#111111" fill-opacity="0.12"/>
    <rect x="1000" y="434" width="180" height="14" rx="7" fill="#111111" fill-opacity="0.12"/>
    <path d="M1018 494L1068 438L1120 466L1192 378" stroke="#FF433D" stroke-width="12" stroke-linecap="round" stroke-linejoin="round"/>
    <rect x="1308" y="362" width="106" height="140" rx="22" fill="#FFFFFF" stroke="#111111" stroke-opacity="0.1" stroke-width="2"/>
    <rect x="1338" y="430" width="16" height="48" rx="8" fill="#FF433D" fill-opacity="0.34"/>
    <rect x="1364" y="398" width="16" height="80" rx="8" fill="#FF433D" fill-opacity="0.68"/>
    <rect x="1390" y="344" width="16" height="134" rx="8" fill="#FF433D"/>
  </g>
  <text x="1326" y="760" text-anchor="middle" fill="#FFFFFF" font-family="'Noto Sans JP', 'Hiragino Sans', 'Yu Gothic', sans-serif" font-size="28" font-weight="800">2026</text>
  <defs>
    <linearGradient id="caseGradient" x1="0" y1="0" x2="1536" y2="864" gradientUnits="userSpaceOnUse">
      <stop offset="0" stop-color="#FFFFFF" stop-opacity="0.98"/>
      <stop offset="0.45" stop-color="#FFFFFF" stop-opacity="0.78"/>
      <stop offset="1" stop-color="#FFFFFF" stop-opacity="0"/>
    </linearGradient>
  </defs>
</svg>
