<svg width="1536" height="864" viewBox="0 0 1536 864" fill="none" xmlns="http://www.w3.org/2000/svg">
  <rect width="1536" height="864" fill="#FFF6F4"/>
  <path d="M0 0H1536V198H0V0Z" fill="#111111"/>
  <path d="M0 206C244 254 408 174 626 240C862 312 1068 486 1536 386V864H0V206Z" fill="#FF433D"/>
  <path d="M0 296C278 330 470 256 700 318C958 392 1142 534 1536 476V864H0V296Z" fill="#FFB7B0"/>
  <path d="M0 0H1536V864H0V0Z" fill="url(#consultGradient)"/>
  <circle cx="1300" cy="158" r="86" fill="#FFFFFF" fill-opacity="0.1"/>
  <circle cx="124" cy="92" r="8" fill="#FFFFFF"/>
  <circle cx="156" cy="92" r="8" fill="#FFFFFF" fill-opacity="0.52"/>
  <circle cx="188" cy="92" r="8" fill="#FFFFFF" fill-opacity="0.28"/>
  <text x="112" y="126" fill="#FFFFFF" font-family="'Noto Sans JP', 'Hiragino Sans', 'Yu Gothic', sans-serif" font-size="36" font-weight="800" letter-spacing="2">ONLINE CONSULTATION</text>
  <text x="112" y="320" fill="#111111" font-family="'Noto Sans JP', 'Hiragino Sans', 'Yu Gothic', sans-serif" font-size="76" font-weight="900">AI導入・業務設計</text>
  <text x="112" y="426" fill="#FF433D" font-family="'Noto Sans JP', 'Hiragino Sans', 'Yu Gothic', sans-serif" font-size="90" font-weight="900">30分相談</text>
  <text x="112" y="508" fill="#111111" font-family="'Noto Sans JP', 'Hiragino Sans', 'Yu Gothic', sans-serif" font-size="36" font-weight="700">現場課題から、実装の入口まで整理</text>
  <rect x="112" y="604" width="310" height="76" rx="38" fill="#111111"/>
  <text x="164" y="654" fill="#FFFFFF" font-family="'Noto Sans JP', 'Hiragino Sans', 'Yu Gothic', sans-serif" font-size="28" font-weight="800">無料で相談</text>
  <g opacity="0.94">
    <rect x="960" y="306" width="392" height="246" rx="26" fill="#FFFFFF" stroke="#111111" stroke-opacity="0.1" stroke-width="2"/>
    <rect x="960" y="306" width="392" height="62" rx="26" fill="#111111"/>
    <circle cx="1000" cy="338" r="9" fill="#FFFFFF" fill-opacity="0.92"/>
    <circle cx="1032" cy="338" r="9" fill="#FFFFFF" fill-opacity="0.55"/>
    <circle cx="1064" cy="338" r="9" fill="#FFFFFF" fill-opacity="0.3"/>
    <circle cx="1094" cy="452" r="52" fill="#FF433D" fill-opacity="0.16"/>
    <path d="M1062 480C1068 458 1080 444 1094 444C1108 444 1120 458 1126 480" stroke="#FF433D" stroke-width="12" stroke-linecap="round"/>
    <circle cx="1094" cy="424" r="23" fill="#FF433D"/>
    <rect x="1180" y="412" width="112" height="14" rx="7" fill="#111111" fill-opacity="0.2"/>
    <rect x="1180" y="456" width="136" height="14" rx="7" fill="#111111" fill-opacity="0.12"/>
    <rect x="1180" y="500" width="94" height="14" rx="7" fill="#111111" fill-opacity="0.12"/>
    <rect x="850" y="530" width="226" height="154" rx="24" fill="#FFFFFF" stroke="#111111" stroke-opacity="0.1" stroke-width="2"/>
    <circle cx="896" cy="574" r="18" fill="#FF433D"/>
    <path d="M888 574L894 580L906 566" stroke="#FFFFFF" stroke-width="6" stroke-linecap="round" stroke-linejoin="round"/>
    <circle cx="896" cy="628" r="18" fill="#FF433D"/>
    <path d="M888 628L894 634L906 620" stroke="#FFFFFF" stroke-width="6" stroke-linecap="round" stroke-linejoin="round"/>
    <rect x="934" y="566" width="100" height="12" rx="6" fill="#111111" fill-opacity="0.16"/>
    <rect x="934" y="620" width="116" height="12" rx="6" fill="#111111" fill-opacity="0.16"/>
  </g>
  <defs>
    <linearGradient id="consultGradient" x1="0" y1="0" x2="1536" y2="864" gradientUnits="userSpaceOnUse">
      <stop offset="0" stop-color="#FFFFFF" stop-opacity="0.96"/>
      <stop offset="0.42" stop-color="#FFFFFF" stop-opacity="0.74"/>
      <stop offset="1" stop-color="#FFFFFF" stop-opacity="0"/>
    </linearGradient>
  </defs>
</svg>
